<svg xmlns="http://www.w3.org/2000/svg" xmlns:xlink="http://www.w3.org/1999/xlink" viewBox="0 0 355.26 200"><defs><style>.cls-1{fill:none;}.cls-2{clip-path:url(#clip-path);}.cls-3{fill:#5d2e8f;}.cls-4{fill:#fff;}</style><clipPath id="clip-path" transform="translate(0 0)"><rect class="cls-1" width="355.26" height="200"/></clipPath></defs><title>SportsHD12</title><g id="Layer_2" data-name="Layer 2"><g id="Layer_1-2" data-name="Layer 1"><g id="HD_12" data-name="HD 12"><g class="cls-2"><g class="cls-2"><path class="cls-3" d="M235.8,99h94.28c15.56,0,25.18-12.37,25.18-24.16V3.7H260.91c-15.56,0-25.19,12.37-25.19,24.16V99Z" transform="translate(0 0)"/><path class="cls-4" d="M250.86,68.16h-6.44V34.53h6.44Zm18.37-33.63h-6.4V48h-9.45v6h9.45v14.2h6.4Zm17,33.63c9.19,0,15.15-6.54,15.15-16.82s-5.8-16.81-15.15-16.81h-12V68.16h6.4V40.49h5.57c7.21,0,8.75,5.87,8.75,10.8,0,4.09-1.16,10.91-8.75,10.91h-3v6h3" transform="translate(0 0)"/><path class="cls-4" d="M319.39,38.82V70.09h-6.78V39.48h-8.46l2.61-6.86h7.54c3.14,0,5.09,2.36,5.09,6.2" transform="translate(0 0)"/><path class="cls-4" d="M328.56,61l.34-.29L341.36,51c1.07-.85,3.56-3.16,3.56-6.37a5.93,5.93,0,0,0-6.23-6c-4,0-6.43,2.58-6.43,6.72a6.07,6.07,0,0,0,4.17,5.49l-5.35,3.84a11.26,11.26,0,0,1-5.19-10c0-7.81,6.86-12,13.3-12a11.87,11.87,0,0,1,12.1,11.91c0,6.13-3.49,9.31-8.39,13.16l-8.26,6.44h16.5v6H331c-3.45,0-5.52-1.68-5.52-4.48,0-2.14,1.12-3,3.13-4.61" transform="translate(0 0)"/><path class="cls-4" d="M0,0V200H176.16c15.71,0,30-6,40.36-16.78a53.15,53.15,0,0,0,14.8-36.15V0Z" transform="translate(0 0)"/><path class="cls-3" d="M0,0V200H176.16c15.71,0,30-6,40.34-16.78a53.07,53.07,0,0,0,14.81-36.15V0ZM227.38,3.93V99H3.94V3.93Z" transform="translate(0 0)"/><path class="cls-3" d="M45.44,33A25,25,0,0,0,25.33,43V18.58a2.36,2.36,0,0,0-4.72,0v40A24.55,24.55,0,0,0,45.44,82.77c14.88,0,24.85-13,24.85-25.07C70.29,42.43,57.39,33,45.44,33m-.06,44.84a20.1,20.1,0,1,1,20-20.11,20.07,20.07,0,0,1-20,20.11M123,57.87a2.31,2.31,0,0,1-2.47,2.4H94.62a2.46,2.46,0,0,1,0-4.91l23.36,0a20,20,0,1,0-2.76,12.92,2.43,2.43,0,0,1,1.56-1.06,2.38,2.38,0,0,1,1.82.37,2.44,2.44,0,0,1,.71,3.36A24.89,24.89,0,1,1,123,57.87m13.91,20.87v0a4.81,4.81,0,0,1-4.77,4h0a4.74,4.74,0,0,1-4.77-4V37.13a4.74,4.74,0,0,1,4.77-4.05h0a4.82,4.82,0,0,1,4.77,4Zm63.25,2.7a17.31,17.31,0,0,1-6.51,1.33,15.51,15.51,0,0,1-12.37-6.37c-1.78-2.7-18.51-29.11-19.22-30.28,0-.09-1.84-3.84-5.43-3.64-6.19.56-5.9,5.74-5.89,6v30a4.58,4.58,0,0,1-4.68,4.35h0A4.58,4.58,0,0,1,141.27,79V47.63c0-.11.21-9.73,9.38-13.5,9.37-3.48,16.5,1.74,19,6.13L188.81,70.4a6,6,0,0,0,8,2,5.65,5.65,0,0,0,3-4.72V37a4.78,4.78,0,0,1,4.73-4,4.7,4.7,0,0,1,4.73,4V67.69a14.61,14.61,0,0,1-9.18,13.75" transform="translate(0 0)"/><path class="cls-4" d="M33.67,144c-3.33,0-5.72-.72-7.13-2.13a3.81,3.81,0,0,1-1.2-2.55,7.23,7.23,0,0,1,1.8-5c1.41-1.55,3.62-2.33,6.55-2.33s4.9.78,6.31,2.3A8.4,8.4,0,0,1,41.88,140a2.37,2.37,0,0,0,4.73,0c0-12.59-12.43-12.73-12.94-12.73H33.6c-12.62,0-13,10.72-13,11.94,0,3.57,2.75,9.61,13.07,9.61,3.48,0,6,.74,7.43,2.23a4.53,4.53,0,0,1,1.29,3.28A6.59,6.59,0,0,1,40.69,159c-1.5,1.52-3.81,2.3-6.92,2.3h-.05c-2.8,0-4.95-.79-6.4-2.34a7.42,7.42,0,0,1-1.92-5.16,2.39,2.39,0,0,0-4.78,0,11.55,11.55,0,0,0,3.28,8.49,13.37,13.37,0,0,0,9.74,3.83c10,0,13.61-6.32,13.61-11.75C47.25,148,41.92,144,33.67,144m162.07,0c-3.31,0-5.72-.73-7.11-2.14a3.89,3.89,0,0,1-1.19-2.55,7.2,7.2,0,0,1,1.79-5c1.43-1.55,3.63-2.33,6.55-2.33s4.9.78,6.3,2.3A8.31,8.31,0,0,1,204,140a2.37,2.37,0,0,0,4.73,0c0-12.58-12.43-12.73-13-12.73h-.05c-12.62,0-13,10.72-13,11.94,0,3.57,2.76,9.61,13.08,9.61,3.48,0,6,.74,7.43,2.23a4.53,4.53,0,0,1,1.29,3.28,6.57,6.57,0,0,1-1.73,4.65c-1.47,1.52-3.8,2.3-6.91,2.3h-.05c-2.8,0-4.95-.79-6.4-2.34a7.29,7.29,0,0,1-1.9-5.16,2.4,2.4,0,0,0-4.8,0,11.62,11.62,0,0,0,3.27,8.49,13.39,13.39,0,0,0,9.75,3.83c10.05,0,13.61-6.32,13.61-11.75,0-6.29-5.35-10.35-13.6-10.35M65.22,127.26c-7.66,0-13,5.38-13,13l0,22.61a2.42,2.42,0,1,0,4.84,0v-9.57h8.14a13,13,0,0,0,0-26.08m0,21.3H57.08v-8.27c0-5,3.25-8.32,8.1-8.32a8.3,8.3,0,1,1,0,16.59m36.22-21.3a19.41,19.41,0,1,0,19.39,19.42,19.44,19.44,0,0,0-19.39-19.42m0,34.11a14.7,14.7,0,1,1,14.69-14.69,14.71,14.71,0,0,1-14.69,14.69m41-8.81a13.11,13.11,0,0,0-4.8-25.3c-7.69,0-13.07,5.4-13.07,13.13l0,22.53a2.44,2.44,0,0,0,4.87,0v-9.44h7.75L143.62,164a2.49,2.49,0,0,0,1.49,1.15,2.43,2.43,0,0,0,1.88-.24,2.48,2.48,0,0,0,1.15-1.5,2.45,2.45,0,0,0-.26-1.87Zm-13-3.89v-8.3c0-5,3.28-8.39,8.15-8.39a8.35,8.35,0,1,1,0,16.69ZM180,130.44a2.43,2.43,0,0,1-2.43,2.44h-8.41v30a2.44,2.44,0,0,1-4.88,0v-30h-8.44a2.44,2.44,0,0,1,0-4.87h21.73a2.43,2.43,0,0,1,2.43,2.43" transform="translate(0 0)"/></g></g></g></g></g></svg>